<svg width="83" height="83" viewBox="0 0 83 83" fill="none" xmlns="http://www.w3.org/2000/svg">
<g clip-path="url(#clip0_939_3736)">
<path d="M41.1 82.2C63.7989 82.2 82.2 63.7989 82.2 41.1C82.2 18.4011 63.7989 0 41.1 0C18.4011 0 0 18.4011 0 41.1C0 63.7989 18.4011 82.2 41.1 82.2Z" fill="white"/>
<path d="M48.0156 50.8379C48.0156 50.0762 47.8984 49.3926 47.6641 48.7871C47.4492 48.1621 47.0391 47.5957 46.4336 47.0879C45.8281 46.5605 44.9785 46.043 43.8848 45.5352C42.791 45.0273 41.375 44.5 39.6367 43.9531C37.7031 43.3281 35.8672 42.625 34.1289 41.8438C32.4102 41.0625 30.8867 40.1543 29.5586 39.1191C28.25 38.0645 27.2148 36.8438 26.4531 35.457C25.7109 34.0703 25.3398 32.459 25.3398 30.623C25.3398 28.8457 25.7305 27.2344 26.5117 25.7891C27.293 24.3242 28.3867 23.0742 29.793 22.0391C31.1992 20.9844 32.8594 20.1738 34.7734 19.6074C36.707 19.041 38.8262 18.7578 41.1309 18.7578C44.2754 18.7578 47.0195 19.3242 49.3633 20.457C51.707 21.5898 53.5234 23.1426 54.8125 25.1152C56.1211 27.0879 56.7754 29.3437 56.7754 31.8828H48.0449C48.0449 30.6328 47.7812 29.5391 47.2539 28.6016C46.7461 27.6445 45.9648 26.8926 44.9102 26.3457C43.875 25.7988 42.5664 25.5254 40.9844 25.5254C39.4609 25.5254 38.1914 25.7598 37.1758 26.2285C36.1602 26.6777 35.3984 27.293 34.8906 28.0742C34.3828 28.8359 34.1289 29.6953 34.1289 30.6523C34.1289 31.375 34.3047 32.0293 34.6562 32.6152C35.0273 33.2012 35.5742 33.748 36.2969 34.2559C37.0195 34.7637 37.9082 35.2422 38.9629 35.6914C40.0176 36.1406 41.2383 36.5801 42.625 37.0098C44.9492 37.7129 46.9902 38.5039 48.748 39.3828C50.5254 40.2617 52.0098 41.248 53.2012 42.3418C54.3926 43.4355 55.291 44.6758 55.8965 46.0625C56.502 47.4492 56.8047 49.0215 56.8047 50.7793C56.8047 52.6348 56.4434 54.2949 55.7207 55.7598C54.998 57.2246 53.9531 58.4648 52.5859 59.4805C51.2188 60.4961 49.5879 61.2676 47.6934 61.7949C45.7988 62.3223 43.6797 62.5859 41.3359 62.5859C39.2266 62.5859 37.1465 62.3125 35.0957 61.7656C33.0449 61.1992 31.1797 60.3496 29.5 59.2168C27.8398 58.084 26.5117 56.6387 25.5156 54.8809C24.5195 53.123 24.0215 51.043 24.0215 48.6406H32.8398C32.8398 49.9688 33.0449 51.0918 33.4551 52.0098C33.8652 52.9277 34.4414 53.6699 35.1836 54.2363C35.9453 54.8027 36.8438 55.2129 37.8789 55.4668C38.9336 55.7207 40.0859 55.8477 41.3359 55.8477C42.8594 55.8477 44.1094 55.6328 45.0859 55.2031C46.082 54.7734 46.8145 54.1777 47.2832 53.416C47.7715 52.6543 48.0156 51.7949 48.0156 50.8379Z" fill="#F33F3F"/>
</g>
<defs>
<clipPath id="clip0_939_3736">
<rect width="82.1" height="82.1" fill="white"/>
</clipPath>
</defs>
</svg>
